Jump_normalized_Motion_pl07
version=1
nRows=14
nColumns=43
inDegrees=yes
endheader
time		pelvis_tilt		pelvis_list		pelvis_rotation		pelvis_tx		pelvis_ty		pelvis_tz		hip_flexion_r		hip_adduction_r		hip_rotation_r		knee_angle_r		ankle_angle_r		subtalar_angle_r		mtp_angle_r		hip_flexion_l		hip_adduction_l		hip_rotation_l		knee_angle_l		ankle_angle_l		subtalar_angle_l		mtp_angle_l		lumbar_extension		lumbar_bending		lumbar_rotation		neck_flexion		neck_lateral_bending		neck_rotation		arm_flex_r		arm_add_r		arm_rot_r		elbow_flex_r		pro_sup_r		wrist_flex_r		wrist_dev_r		hand_finger_flex_r		arm_flex_l		arm_add_l		arm_rot_l		elbow_flex_l		pro_sup_l		wrist_flex_l		wrist_dev_l		hand_finger_flex_l		
0.155000		1.966599		-28.130308		92.461381		0.016388		1.675836		1.787951		88.912399		-15.431498		8.492773		-141.097986		45.311357		6.146202		-24.638274		89.846778		-12.191301		8.063126		-139.739731		45.676704		-6.403731		-29.138444		-32.846217		0.063178		-0.154562		40.105441		2.945089		4.528562		102.380456		-25.035610		34.583615		79.550131		53.830880		-26.110225		-17.639714		57.644189		114.128772		-26.110680		54.701602		78.334199		62.932206		-48.019552		5.413432		71.212498		
0.157348		1.986161		-28.440909		92.476319		0.016218		1.676881		1.785068		88.731702		-15.486324		8.396286		-140.903445		45.266149		6.179767		-24.595783		89.622207		-12.122691		8.017747		-139.523783		45.626328		-6.413546		-29.083547		-32.442538		0.094540		-0.130156		40.054752		2.958853		4.527327		103.198858		-24.729746		34.705395		79.171739		53.835104		-26.181233		-17.633688		57.623389		114.812401		-25.751888		54.752173		78.100073		62.885979		-48.076251		5.376806		71.229724		
0.159697		2.040023		-28.595449		92.522731		0.016050		1.678132		1.782006		88.324319		-15.548273		8.272085		-140.678821		45.174053		6.238413		-24.449751		89.240954		-12.045372		8.028686		-139.303045		45.498700		-6.491672		-28.908470		-32.191299		0.179996		-0.158266		39.749864		2.892518		4.569299		104.249951		-24.542958		35.311907		78.700077		53.875400		-26.322387		-17.729154		57.659327		115.746785		-25.619912		55.251806		77.897544		62.732332		-48.175658		5.255015		71.403506		
0.162045		2.065073		-28.917127		92.529585		0.015928		1.679289		1.778959		88.099637		-15.568278		8.171825		-140.425162		45.126494		6.278541		-24.392320		89.000722		-11.981925		7.997458		-139.058175		45.448930		-6.496404		-28.836363		-31.753395		0.203360		-0.160745		39.715152		2.907878		4.574067		105.000855		-24.222652		35.472429		78.286903		53.880630		-26.434086		-17.726422		57.632436		116.390236		-25.309219		55.323801		77.630113		62.664535		-48.235223		5.208759		71.435538		
0.164394		2.119406		-29.147565		92.557219		0.015827		1.680514		1.775787		87.749854		-15.582319		8.052479		-140.165995		45.039458		6.340910		-24.275906		88.674063		-11.919147		8.015116		-138.824794		45.352235		-6.527399		-28.697595		-31.385925		0.267833		-0.185601		39.423769		2.885558		4.608911		105.905617		-23.996408		35.982525		77.820941		53.968372		-26.625151		-17.739866		57.616792		117.188770		-25.149514		55.719020		77.371199		62.574103		-48.253232		5.139348		71.558236		
0.166742		2.161093		-29.439844		92.568337		0.015739		1.681727		1.772615		87.481347		-15.600041		7.937966		-139.924227		44.979028		6.392397		-24.198546		88.401726		-11.883585		7.996575		-138.561723		45.281421		-6.528420		-28.605433		-30.965646		0.306057		-0.178652		39.310705		2.888210		4.626819		106.676212		-23.710233		36.232564		77.369070		54.014481		-26.798569		-17.728720		57.577462		117.864800		-24.899769		55.887674		77.105402		62.516314		-48.271804		5.092819		71.616190		
0.169091		2.210700		-29.726150		92.582621		0.015667		1.682948		1.769397		87.199629		-15.606646		7.820474		-139.676108		44.910644		6.452059		-24.124473		88.123917		-11.853797		7.989345		-138.296019		45.209639		-6.529940		-28.518737		-30.535289		0.351052		-0.171343		39.124030		2.897879		4.641576		107.459659		-23.442176		36.552846		76.883633		54.097452		-26.989708		-17.684337		57.524961		118.548672		-24.668624		56.109793		76.809082		62.492554		-48.247736		5.069630		71.670676		
0.171439		2.288836		-29.911616		92.605564		0.015591		1.684305		1.765982		86.767246		-15.599175		7.675163		-139.401758		44.815413		6.541984		-23.966285		87.735410		-11.824771		8.031699		-138.051361		45.079759		-6.533134		-28.348061		-30.207494		0.446104		-0.184800		38.803692		2.832699		4.709410		108.323738		-23.204082		37.094502		76.431020		54.242255		-27.346053		-17.707134		57.467278		119.327993		-24.615299		56.544414		76.594488		62.461791		-48.157245		4.995001		71.821930		
0.173788		2.367839		-30.111776		92.632962		0.015545		1.685676		1.762511		86.337863		-15.582885		7.536458		-139.121184		44.722458		6.636550		-23.763216		87.358255		-11.802095		8.077503		-137.793570		44.957984		-6.524839		-28.137316		-29.858591		0.544140		-0.216813		38.524035		2.753206		4.787879		109.143681		-22.926017		37.608724		75.965176		54.360189		-27.777536		-17.755689		57.412940		120.055680		-24.575221		56.925309		76.388898		62.423728		-48.065829		4.896178		71.985292		
0.176136		2.426253		-30.396624		92.657301		0.015502		1.686993		1.759069		86.024262		-15.584685		7.414364		-138.850672		44.643690		6.716473		-23.616024		87.059248		-11.794128		8.072895		-137.500879		44.870622		-6.498659		-27.988748		-29.413091		0.606526		-0.228430		38.358548		2.721233		4.828086		109.840098		-22.632433		37.922991		75.481887		54.421680		-28.097414		-17.752582		57.363847		120.649995		-24.414114		57.114847		76.127125		62.414235		-48.008057		4.841622		72.067000		
0.178485		2.512496		-30.615101		92.692906		0.015427		1.688416		1.755497		85.612762		-15.592359		7.258036		-138.568362		44.552371		6.842482		-23.299732		86.693943		-11.793953		8.098211		-137.215251		44.743353		-6.458169		-27.708933		-29.048160		0.727052		-0.248660		38.215178		2.595756		4.924258		110.593818		-22.296331		38.354660		74.984410		54.478655		-28.648823		-17.849358		57.337443		121.281357		-24.382485		57.358217		75.924092		62.469367		-47.851713		4.724671		72.217578		
0.180833		2.613989		-30.795748		92.733870		0.015328		1.689864		1.751813		85.132597		-15.594288		7.093806		-138.266267		44.436557		6.996532		-22.867509		86.291651		-11.783766		8.154880		-136.945349		44.597401		-6.415201		-27.335258		-28.707528		0.881072		-0.287911		37.978552		2.427702		5.046429		111.387591		-21.949794		38.934260		74.472990		54.537491		-29.335939		-17.997038		57.338228		121.928571		-24.442621		57.683783		75.752534		62.553861		-47.638287		4.574548		72.419030		
0.183182		2.660004		-31.128204		92.754348		0.015205		1.691119		1.748190		84.873483		-15.616455		6.999000		-137.978825		44.304460		7.088872		-22.781699		86.022504		-11.765203		8.121665		-136.642556		44.501790		-6.372013		-27.265989		-28.151924		0.922824		-0.269481		37.611522		2.454193		5.027334		111.963306		-21.760621		39.250252		74.014553		54.585759		-29.447848		-17.899978		57.332223		122.391124		-24.224784		57.867075		75.440340		62.627568		-47.571198		4.612908		72.419012		
0.185530		2.742458		-31.389126		92.803211		0.015093		1.692452		1.744475		84.523445		-15.615401		6.901155		-137.706742		44.141958		7.238756		-22.664439		85.696140		-11.750353		8.141518		-136.335663		44.355591		-6.320173		-27.183422		-27.667251		1.015296		-0.261627		37.165951		2.419123		5.032821		112.596858		-21.595007		39.707618		73.525115		54.680842		-29.609449		-17.815564		57.321992		122.933216		-24.092406		58.171617		75.113244		62.781369		-47.426747		4.642179		72.444462		
